<?xml version="1.0" standalone="no"?>
<!DOCTYPE svg PUBLIC "-//W3C//DTD SVG 20010904//EN"
 "http://www.w3.org/TR/2001/REC-SVG-20010904/DTD/svg10.dtd">
<svg version="1.0" xmlns="http://www.w3.org/2000/svg"
 width="138.000000pt" height="138.000000pt" viewBox="0 0 138.000000 138.000000"
 preserveAspectRatio="xMidYMid meet">
<metadata>
Created by potrace 1.11, written by Peter Selinger 2001-2013
</metadata>
<g transform="translate(0.000000,138.000000) scale(0.100000,-0.100000)"
fill="#000000" stroke="none">
<path d="M472 1360 c-36 -15 -49 -71 -27 -122 8 -20 40 -33 70 -29 27 3 64 46
60 68 -14 67 -16 71 -46 82 -18 6 -32 11 -33 10 -1 0 -11 -4 -24 -9z"/>
<path d="M830 1180 l-23 -79 -54 -23 c-48 -21 -53 -26 -53 -55 l0 -33 53 0 54
0 0 -258 c0 -236 2 -261 20 -302 24 -53 45 -73 98 -96 45 -18 155 -21 198 -5
24 9 27 16 27 54 l0 44 -75 -5 c-74 -5 -74 -5 -110 31 -40 40 -37 13 -39 325
l-1 212 108 0 108 0 -3 48 -3 47 -95 1 c-52 1 -100 2 -105 3 -7 1 -11 34 -10
86 l1 85 -37 0 -36 0 -23 -80z"/>
<path d="M445 1081 c-3 -2 -5 -208 -5 -458 1 -386 -2 -457 -15 -482 -21 -41
-68 -53 -143 -37 -17 4 -32 4 -33 -1 -12 -92 -1 -103 102 -103 115 0 159 25
193 110 16 40 18 85 17 470 0 234 0 443 0 466 l-1 41 -55 0 c-31 -1 -58 -3
-60 -6z"/>
</g>
</svg>
